<?xml version="1.0" standalone="no"?>
<!DOCTYPE svg PUBLIC "-//W3C//DTD SVG 20010904//EN"
 "http://www.w3.org/TR/2001/REC-SVG-20010904/DTD/svg10.dtd">
<svg version="1.0" xmlns="http://www.w3.org/2000/svg"
 width="2400.000000pt" height="966.000000pt" viewBox="0 0 2400.000000 966.000000"
 preserveAspectRatio="xMidYMid meet">

<g transform="translate(0.000000,966.000000) scale(0.100000,-0.100000)"
fill="#000000" stroke="none">
<path d="M0 4830 l0 -4830 12000 0 12000 0 0 4830 0 4830 -12000 0 -12000 0 0
-4830z m15180 3425 c176 -22 244 -38 420 -96 85 -27 187 -57 225 -65 89 -19
240 -19 375 1 170 25 573 38 955 31 756 -13 1450 -80 2335 -226 371 -62 655
-115 1610 -305 911 -181 1251 -245 1580 -299 l195 -32 -1 -37 c-1 -23 -13 -55
-30 -81 -35 -53 -586 -741 -716 -893 -320 -375 -595 -647 -878 -867 -48 -37
-74 -65 -72 -75 2 -9 6 -95 9 -191 6 -190 -7 -297 -48 -425 l-22 -65 49 -63
c195 -250 289 -392 345 -525 l29 -71 -25 -113 c-119 -529 -335 -941 -656
-1255 -339 -331 -719 -511 -1484 -702 -800 -200 -1471 -328 -2095 -400 -1429
-166 -2494 -27 -3095 404 l-76 55 -102 -54 c-687 -365 -1806 -539 -2767 -430
-593 66 -1088 223 -1442 456 l-97 64 -88 -86 c-540 -525 -1765 -660 -2526
-278 -391 196 -613 497 -657 890 -13 113 -7 258 16 378 8 41 14 81 14 88 0 7
-39 -17 -87 -53 -640 -476 -1168 -812 -1670 -1064 -393 -196 -639 -279 -981
-332 -175 -26 -522 -37 -683 -20 -539 56 -906 275 -1035 617 -38 102 -54 201
-54 340 0 194 26 289 130 475 l31 55 -122 220 c-184 329 -340 656 -518 1084
-174 421 -237 592 -281 774 -117 475 -80 917 111 1316 260 544 774 977 1509
1271 85 34 306 135 490 224 460 223 606 283 820 336 80 19 121 23 265 23 147
0 182 -3 255 -23 340 -92 576 -334 645 -662 8 -39 15 -84 15 -100 0 -16 3 -29
6 -29 3 0 83 22 178 49 581 168 959 247 1416 298 223 24 728 24 941 0 l156
-18 64 44 c492 343 1344 377 2534 102 464 -108 806 -207 1058 -306 374 -149
441 -158 602 -81 50 24 151 79 225 122 74 44 218 115 320 159 634 271 1170
416 1705 461 152 12 524 4 675 -15z"/>
<path d="M14530 7499 c-522 -46 -1079 -223 -1745 -557 -991 -495 -1702 -968
-2305 -1532 -68 -63 -117 -104 -110 -90 31 59 212 348 313 500 141 211 292
413 503 670 210 257 308 384 297 387 -41 13 -558 147 -743 193 -258 64 -826
186 -1015 219 -516 89 -880 73 -1129 -48 -63 -31 -107 -64 -195 -145 -175
-163 -197 -169 -429 -111 -188 47 -248 54 -507 62 -355 9 -636 -20 -1126 -117
-639 -128 -957 -243 -1133 -409 -135 -128 -155 -250 -90 -556 61 -289 49 -394
-69 -626 -54 -107 -238 -406 -360 -587 -115 -171 -255 -306 -384 -371 -23 -11
-44 -18 -46 -13 -3 4 -12 54 -21 112 -52 339 -49 657 10 1070 28 201 142 777
208 1055 70 296 80 361 80 540 1 159 -17 288 -46 322 -13 16 -111 17 -194 2
-135 -24 -269 -80 -526 -223 -189 -104 -222 -119 -543 -248 -525 -210 -808
-369 -1003 -566 -315 -318 -411 -780 -260 -1252 43 -134 284 -739 374 -936
177 -391 372 -741 620 -1110 108 -163 122 -188 113 -207 -6 -12 -75 -85 -153
-162 -152 -149 -185 -197 -194 -286 -4 -43 -2 -47 38 -82 85 -72 180 -102 375
-117 428 -32 870 85 1409 376 612 329 935 546 1326 888 175 154 492 468 694
690 211 232 826 946 965 1121 52 66 116 142 141 169 51 56 158 138 170 131 19
-12 44 -236 44 -400 1 -308 -45 -481 -260 -987 -312 -732 -445 -1212 -432
-1561 7 -166 27 -228 100 -299 270 -263 1269 -309 1658 -76 101 61 172 170
275 423 32 77 101 228 154 335 54 107 128 261 166 342 38 81 70 146 72 145 1
-2 7 -54 13 -117 37 -363 188 -624 475 -815 242 -161 657 -309 1095 -389 221
-40 348 -50 630 -50 282 0 426 12 700 60 629 108 1309 365 1963 740 71 41 131
73 133 71 3 -2 -1 -58 -7 -124 -19 -204 12 -348 97 -442 81 -90 190 -137 452
-196 866 -193 1786 -159 3017 110 600 131 1229 290 1474 371 351 117 544 225
726 408 160 162 246 317 306 552 37 149 37 159 -3 184 -100 62 -306 89 -540
71 -273 -20 -470 -60 -955 -190 -801 -215 -1073 -262 -1534 -262 -295 0 -516
27 -689 83 -178 57 -226 112 -182 210 44 101 227 196 477 249 220 45 481 64
1160 84 286 8 579 20 650 25 410 32 692 95 870 195 158 88 306 224 390 360 97
156 126 340 72 458 -67 147 -262 252 -535 288 -122 16 -426 6 -577 -20 -141
-24 -284 -57 -605 -139 -372 -95 -535 -125 -765 -138 -151 -8 -438 16 -462 39
-2 3 7 22 21 44 14 21 51 99 82 173 55 133 104 219 144 255 19 17 36 18 243
12 122 -4 395 -20 607 -37 212 -17 485 -35 607 -41 578 -27 1026 51 1415 246
269 136 464 294 771 627 164 177 170 199 54 218 -213 35 -568 100 -932 171
-1749 342 -2295 422 -3150 460 -482 21 -1137 -14 -1286 -70 -69 -26 -167 -95
-274 -191 -115 -105 -179 -154 -183 -141 -2 6 10 55 27 109 35 113 61 218 61
249 0 18 -12 25 -77 47 -115 38 -275 74 -425 97 -156 23 -481 32 -638 18z
m1063 -1037 c68 -33 145 -59 392 -132 137 -41 265 -93 265 -109 0 -13 -134
-38 -400 -76 -307 -44 -436 -68 -529 -100 -65 -22 -73 -23 -68 -7 3 9 47 133
97 274 l93 257 42 -37 c23 -20 72 -52 108 -70z m-2418 -723 c-36 -142 -50
-192 -175 -594 -102 -328 -179 -595 -195 -674 l-7 -34 193 7 c249 9 459 26
962 81 224 25 474 50 555 56 81 6 158 16 171 22 36 18 85 116 138 276 52 161
48 158 103 51 97 -191 125 -446 68 -617 l-23 -68 -120 -7 c-341 -19 -596 -100
-1200 -383 -510 -239 -684 -304 -980 -362 -130 -25 -433 -25 -530 1 -172 45
-307 142 -367 263 -27 55 -33 80 -36 152 -7 146 43 294 169 507 150 251 296
420 786 904 197 195 391 395 432 443 41 48 76 85 78 83 2 -2 -8 -50 -22 -107z"/>
</g>
</svg>
